<svg preserveAspectRatio="none" width="100%" height="100%" overflow="visible" style="display: block;" viewBox="0 0 70.31 72.0003" fill="none" xmlns="http://www.w3.org/2000/svg">
<g id="WappGPT - logo">
<path id="Vector" fill-rule="evenodd" clip-rule="evenodd" d="M50.3774 37.6331C46.3681 39.2564 42.0404 40.2576 37.514 40.5171C36.7334 40.5618 35.9468 40.5845 35.155 40.5845C34.3632 40.5845 33.5766 40.5618 32.796 40.5171C28.2685 40.2576 23.9399 39.256 19.9298 37.632C11.5144 34.2239 4.50206 28.075 0 20.2922C7.01725 8.16151 20.133 0 35.155 0C50.177 0 63.2928 8.16151 70.31 20.2922C65.8074 28.0758 58.7941 34.2253 50.3774 37.6331Z" fill="var(--fill-0, white)"/>
<g id="Vector_2">
</g>
<path id="Vector_3" d="M19.9292 40.791C18.9597 40.3984 18.0089 39.9694 17.0783 39.5057C14.0541 41.6361 11.4976 44.2894 9.57251 47.3166C12.8446 52.462 17.9412 56.5272 24.0575 58.7804C26.972 59.8541 30.1181 60.5163 33.4087 60.6878H36.8377C40.1275 60.5163 45.9098 63.7755 37.5134 72.0003C43.6307 69.7473 57.4014 52.4626 60.6739 47.3166C58.7543 44.298 56.2068 41.6512 53.1939 39.524C52.2741 39.9811 51.3346 40.4044 50.3768 40.7922C46.3675 42.4155 42.0398 43.4167 37.5134 43.6761C36.7328 43.7209 35.9462 43.7435 35.1544 43.7435C34.3626 43.7435 33.5761 43.7209 32.7954 43.6761C28.2679 43.4166 23.9393 42.415 19.9292 40.791Z" fill="var(--fill-0, white)"/>
<rect id="Rectangle 17" x="18.2031" y="15.1013" width="33.9777" height="12.1349" rx="6.06745" fill="var(--fill-0, #162550)"/>
<ellipse id="Ellipse 18" cx="44.5619" cy="21.1014" rx="2.22473" ry="2.22473" fill="var(--fill-0, #04FED1)"/>
<ellipse id="Ellipse 19" cx="35.1232" cy="51.0339" rx="2.22473" ry="2.22473" fill="var(--fill-0, #162550)"/>
<ellipse id="Ellipse 20" cx="26.2257" cy="21.1014" rx="2.22473" ry="2.22473" fill="var(--fill-0, #04FED1)"/>
<ellipse id="Ellipse 21" cx="26.2257" cy="51.0339" rx="2.22473" ry="2.22473" fill="var(--fill-0, #162550)"/>
<ellipse id="Ellipse 22" cx="44.0233" cy="51.0339" rx="2.22473" ry="2.22473" fill="var(--fill-0, #162550)"/>
</g>
</svg>
