<svg preserveAspectRatio="none" width="100%" height="100%" overflow="visible" style="display: block;" viewBox="0 0 40.1356 31.8788" fill="none" xmlns="http://www.w3.org/2000/svg">
<g id="Vector">
<path fill-rule="evenodd" clip-rule="evenodd" d="M39.9493 24.1253C38.6413 20.0296 35.1745 17.6861 30.4176 17.6861H30.3836C28.445 17.6682 26.7124 18.0587 25.2504 18.8059C29.3301 20.1156 32.3544 23.0217 33.7465 27.1335C35.9556 26.8272 37.8763 26.1481 39.5748 25.1107L40.1356 24.7542L39.9493 24.1253Z" fill="var(--fill-0, #0171BB)"/>
<path fill-rule="evenodd" clip-rule="evenodd" d="M27.3071 14.5928C28.2244 15.1034 29.2618 15.3919 30.3833 15.3919C33.9004 15.3919 36.7545 12.5359 36.7545 9.01889C36.7545 5.51977 33.9004 2.66385 30.3833 2.66385C29.6864 2.66385 29.0235 2.78389 28.3946 2.98635C29.3119 4.46627 29.8387 6.21494 29.8387 8.06752C29.8387 10.583 28.9034 12.8602 27.3071 14.5928Z" fill="var(--fill-0, #0171BB)"/>
<path fill-rule="evenodd" clip-rule="evenodd" d="M14.801 18.7729C13.373 18.0598 11.6906 17.6854 9.78787 17.6854H9.71979C4.96292 17.6854 1.49604 20.0306 0.20425 24.1246L0 24.7535L0.560792 25.11C2.17508 26.0972 4.07962 26.7584 6.20275 27.0988C7.61279 22.9708 10.6891 20.0468 14.801 18.7729Z" fill="var(--fill-0, #0171BB)"/>
<path fill-rule="evenodd" clip-rule="evenodd" d="M9.75409 15.3913C10.8757 15.3913 11.9113 15.1028 12.8304 14.5922C11.2322 12.8597 10.297 10.5825 10.297 8.06697C10.297 6.21618 10.8237 4.46572 11.7428 2.9876C11.114 2.78335 10.4511 2.66331 9.75409 2.66331C6.23705 2.66331 3.38114 5.51922 3.38114 9.01835C3.38114 12.5372 6.23705 15.3913 9.75409 15.3913Z" fill="var(--fill-0, #0171BB)"/>
<path fill-rule="evenodd" clip-rule="evenodd" d="M20.007 19.708C19.9783 19.708 19.9514 19.708 19.9246 19.708C13.8078 19.708 9.34836 22.7144 7.68927 27.9622L7.48861 28.5964L8.05656 28.944C11.2959 30.9184 15.1659 31.8788 19.8869 31.8788H20.0392C24.7639 31.8788 28.6356 30.9184 31.875 28.944L32.4447 28.5964L32.2441 27.9622C30.5832 22.7144 26.1255 19.708 20.007 19.708Z" fill="var(--fill-0, #0171BB)"/>
<path fill-rule="evenodd" clip-rule="evenodd" d="M20.0682 16.1519C24.5223 16.1519 28.1451 12.5291 28.1451 8.07504C28.1451 3.62275 24.5223 0 20.0682 0C15.6141 0 11.9914 3.62275 11.9914 8.07504C11.9914 12.5291 15.6141 16.1519 20.0682 16.1519Z" fill="var(--fill-0, #0171BB)"/>
</g>
</svg>
