<svg preserveAspectRatio="none" width="100%" height="100%" overflow="visible" style="display: block;" viewBox="0 0 35.6488 33.25" fill="none" xmlns="http://www.w3.org/2000/svg">
<g id="Danger Triangle">
<path id="Vector" fill-rule="evenodd" clip-rule="evenodd" d="M5.70006 12.25C9.67883 5.35857 11.6682 1.91285 14.2655 0.756476C16.5309 -0.252159 19.1179 -0.252159 21.3834 0.756476C23.9806 1.91285 25.97 5.35856 29.9488 12.25C33.9275 19.1414 35.9169 22.5872 35.6197 25.4146C35.3605 27.8809 34.067 30.1213 32.0608 31.5789C29.7607 33.25 25.782 33.25 17.8244 33.25C9.86687 33.25 5.8881 33.25 3.58802 31.5789C1.5818 30.1213 0.288294 27.8809 0.0290805 25.4146C-0.2681 22.5872 1.72129 19.1414 5.70006 12.25ZM17.8243 7.4375C18.5492 7.4375 19.1368 8.02513 19.1368 8.75V19.25C19.1368 19.9749 18.5492 20.5625 17.8243 20.5625C17.0994 20.5625 16.5118 19.9749 16.5118 19.25V8.75C16.5118 8.02513 17.0994 7.4375 17.8243 7.4375ZM17.8243 26.25C18.7908 26.25 19.5743 25.4665 19.5743 24.5C19.5743 23.5335 18.7908 22.75 17.8243 22.75C16.8578 22.75 16.0743 23.5335 16.0743 24.5C16.0743 25.4665 16.8578 26.25 17.8243 26.25Z" fill="var(--fill-0, #FEEED2)"/>
</g>
</svg>
