<svg preserveAspectRatio="none" width="100%" height="100%" overflow="visible" style="display: block;" viewBox="0 0 33.9512 31.6667" fill="none" xmlns="http://www.w3.org/2000/svg">
<g id="Danger Triangle">
<path id="Vector" fill-rule="evenodd" clip-rule="evenodd" d="M5.4286 11.6667C9.2179 5.1034 11.1126 1.82176 13.5861 0.720454C15.7437 -0.240151 18.2075 -0.240151 20.3651 0.720454C22.8386 1.82176 24.7333 5.10339 28.5226 11.6667C32.3119 18.2299 34.2066 21.5116 33.9235 24.2044C33.6767 26.5532 32.4448 28.6869 30.5341 30.0751C28.3435 31.6667 24.5542 31.6667 16.9756 31.6667C9.39699 31.6667 5.60768 31.6667 3.41714 30.0751C1.50645 28.6869 0.274536 26.5532 0.0276667 24.2044C-0.255362 21.5116 1.63929 18.2299 5.4286 11.6667ZM16.9755 7.08333C17.6659 7.08333 18.2255 7.64298 18.2255 8.33333V18.3333C18.2255 19.0237 17.6659 19.5833 16.9755 19.5833C16.2851 19.5833 15.7255 19.0237 15.7255 18.3333V8.33333C15.7255 7.64298 16.2851 7.08333 16.9755 7.08333ZM16.9755 25C17.896 25 18.6422 24.2538 18.6422 23.3333C18.6422 22.4129 17.896 21.6667 16.9755 21.6667C16.055 21.6667 15.3088 22.4129 15.3088 23.3333C15.3088 24.2538 16.055 25 16.9755 25Z" fill="var(--fill-0, #FEEED2)"/>
</g>
</svg>
