<svg preserveAspectRatio="none" width="100%" height="100%" overflow="visible" style="display: block;" viewBox="0 0 27 27" fill="none" xmlns="http://www.w3.org/2000/svg">
<path id="Home" fill-rule="evenodd" clip-rule="evenodd" d="M9.46025 25.3414V21.2013C9.46023 20.1483 10.3639 19.2926 11.4835 19.2855H15.5848C16.7098 19.2855 17.6218 20.1433 17.6218 21.2013V25.3542C17.6215 26.2483 18.3803 26.979 19.3306 27H22.0648C24.7904 27 27 24.9219 27 22.3585V10.5811C26.9854 9.57262 26.482 8.62562 25.6329 8.00959L16.282 0.925157C14.6439 -0.308386 12.3151 -0.308386 10.677 0.925157L1.36709 8.02245C0.514789 8.63598 0.0104969 9.58455 0 10.5939V22.3585C0 24.9219 2.20956 27 4.93519 27H7.66937C8.64335 27 9.43291 26.2574 9.43291 25.3414" fill="var(--fill-0, #FFF7F7)"/>
</svg>
