<svg preserveAspectRatio="none" width="100%" height="100%" overflow="visible" style="display: block;" viewBox="0 0 32 32" fill="none" xmlns="http://www.w3.org/2000/svg">
<g id="disable-bell-notification--disable-silent-notification-off-silence-alarm-bell-alert">
<path id="Vector" d="M31 30.9954L1 1" stroke="var(--stroke-0, white)" stroke-width="2" stroke-linecap="round" stroke-linejoin="round"/>
<path id="Vector_2" d="M24.0766 24.0644H29.8458C28.826 24.0644 28.0989 23.6592 27.3779 22.9384C26.6568 22.2175 26.2518 21.2398 26.2518 20.2203V11.2508C26.2518 8.53212 25.1716 5.92479 23.249 4.00238C21.3263 2.07999 18.7186 1 15.9995 1C13.2804 1 10.6727 2.07999 8.74999 4.00238C7.95834 4.79392 7.30953 5.70156 6.82014 6.68529" stroke="var(--stroke-0, white)" stroke-width="2" stroke-linecap="round" stroke-linejoin="round"/>
<path id="Vector_3" d="M13.6934 31H18.3087" stroke="var(--stroke-0, white)" stroke-width="2" stroke-linecap="round" stroke-linejoin="round"/>
<path id="Vector_4" d="M5.74807 12.5369V20.2205C5.74807 21.24 5.34302 22.2177 4.622 22.9386C3.90101 23.6594 3.17395 24.0646 2.1543 24.0646H17.1543" stroke="var(--stroke-0, white)" stroke-width="2" stroke-linecap="round" stroke-linejoin="round"/>
</g>
</svg>
